# xmcd
#
# Track frame offsets: 
#        150
#        20909
#        33390
#        43065
#        59185
#        66547
#        84675
#        98680
#        110493
#        131075
#        145205
#        158540
#        167202
#        185440
#        209254
#        224929
#        237933
#        254283
#        271305
#        294501
#        309843
#        322160
#        338072
#
# Disc length: 4756 seconds
#
# Revision: 0
# Processed by: cddbd v1.5.2PL0 Copyright (c) Steve Scherf et al.
# Submitted via: ExactAudioCopy v1.3
#
DISCID=6e129217
DTITLE=Various Artist - Akella Presents - vol. 158 - Rockin' Rollers 
DTITLE=Blues  CD2
DYEAR=2018
DGENRE=Blues
TTITLE0=Dave Fields - Rockin' At The Barbeque
TTITLE1=Slapback Johnny - Doin Time
TTITLE2=The Shadows - All Mamas Children
TTITLE3=John 'Juke' Logan - Fan The Flames
TTITLE4=Mick Kolassa and Mark Telesca - She Came In Through the Bathro
TTITLE4=om Window
TTITLE5=Downchild Blues Band - You Don't Do
TTITLE6=Blues 'n' Trouble - See My Baby Shake It
TTITLE7=Mojo Blues Band - Rockin' Pneumonia And The Boogie Woogie Flu
TTITLE8=The Cadillac Kings - Flatfoot Sam
TTITLE9=Robert Ward - I Do What I Want
TTITLE10=Texas Slim - Lazy Girl
TTITLE11=Tim Boykin Blues Band - Come In From Outdoors
TTITLE12=RoosterHouse Gumbo Band - Whiskeydrinken' Woman
TTITLE13=Cameo Blues Band - Why Can't You Be Happy
TTITLE14=Willie May - Frog Legs
TTITLE15=Full Trunk - Good Old Times
TTITLE16=Robin Barrett and Coyote Kings - Jackhammer Slow Jammer
TTITLE17=Too Mutz Blues Band - She
TTITLE18=Subluna - Well Well Well
TTITLE19=JP Soars - Reefer Man
TTITLE20=Slapback Johnny - Moonshine Fred
TTITLE21=The Beat Daddys - Root Rubbin' Ball
TTITLE22=Dave Hole - Shake Your Money Maker
EXTD=
EXTT0=
EXTT1=
EXTT2=
EXTT3=
EXTT4=
EXTT5=
EXTT6=
EXTT7=
EXTT8=
EXTT9=
EXTT10=
EXTT11=
EXTT12=
EXTT13=
EXTT14=
EXTT15=
EXTT16=
EXTT17=
EXTT18=
EXTT19=
EXTT20=
EXTT21=
EXTT22=
PLAYORDER=
